<svg xmlns="http://www.w3.org/2000/svg" width="239" height="56" fill="none" viewBox="0 0 239 56">
  <path fill="#000" d="M14.206 28.193 22.618 18.1l10.042 8.484 4.894-5.873L21.673 7.293 8.367 23.26l5.839 4.934Zm-3.456 4.146-5.84-4.934-4.895 5.873 5.84 4.934 4.895-5.873Zm4.124 3.485 10.036 8.48 8.416-10.098 5.842 4.93-.002.004-13.311 15.97L9.979 41.697l-.009-.007 4.904-5.866ZM42.618 35l4.895-5.873-5.839-4.934-4.895 5.873L42.618 35Z"/>
  <path fill="#000" d="m29.208 30.723.002-.001-5.926-5.006-3.67 4.404h-.001l-.421.506-.87 1.044-.007.008.008.007 5.921 5.002 4.966-5.959.003-.003-.005-.002Zm25.595-14.652 11.673-1.02c2.897-.254 5.154.303 6.769 1.67 1.251 1.06 1.951 2.446 2.101 4.16l.006.073c.063.724.03 1.372-.1 1.943a6.016 6.016 0 0 1-.584 1.566c-.258.473-.57.896-.934 1.268a6.984 6.984 0 0 1-1.193.98c1.505.43 2.718 1.082 3.637 1.963.919.882 1.453 2.167 1.6 3.857l.007.073c.101 1.16-.031 2.192-.398 3.101a5.93 5.93 0 0 1-1.715 2.34c-.775.652-1.731 1.173-2.867 1.565-1.136.391-2.411.648-3.823.772L57.02 41.428l-2.217-25.357Zm11.402 9.333c1.224-.107 2.177-.403 2.859-.889.683-.485.983-1.199.901-2.14l-.007-.073c-.073-.845-.442-1.464-1.105-1.856-.663-.393-1.582-.538-2.757-.435l-5.469.478.469 5.361 5.109-.446Zm2.369 10.086c1.223-.107 2.163-.413 2.82-.92.656-.509.944-1.234.861-2.176l-.006-.072c-.074-.845-.456-1.487-1.147-1.926-.691-.438-1.756-.594-3.196-.468l-6.405.56.488 5.578 6.585-.575Zm14.554-21.896 5.541-.484 2.218 25.357-5.542.485-2.217-25.358Zm13.935-1.218 5.108-.447 13.168 14.581-1.365-15.613 5.469-.478 2.217 25.357-4.713.412-13.608-15.053 1.41 16.12-5.469.478-2.217-25.357Zm39.14-3.605 5.109-.447 13.029 24.595-5.794.506-2.8-5.486-10.651.932-1.805 5.888-5.65.494 8.562-26.482Zm7.134 14.414-4.065-7.93-2.627 8.516 6.692-.586Zm14.768-16.147 5.11-.447 13.167 14.581-1.366-15.613 5.47-.478 2.217 25.357-4.713.413-13.608-15.054 1.409 16.12-5.469.478-2.217-25.357Zm44.578 22.091c-1.847.161-3.591-.027-5.234-.564-1.643-.537-3.09-1.342-4.344-2.413-1.254-1.07-2.275-2.374-3.061-3.912-.788-1.537-1.26-3.211-1.419-5.023l-.006-.072c-.158-1.811.017-3.535.527-5.174a13.14 13.14 0 0 1 2.334-4.402c1.046-1.296 2.344-2.359 3.89-3.187 1.547-.829 3.293-1.328 5.236-1.498 1.174-.103 2.256-.1 3.245.008.988.109 1.893.297 2.714.565.822.27 1.589.616 2.303 1.04.713.425 1.384.901 2.01 1.431l-3.167 4.401c-1.063-.807-2.125-1.42-3.189-1.838-1.064-.418-2.231-.571-3.503-.46a6.974 6.974 0 0 0-5.051 2.777 8.015 8.015 0 0 0-1.291 2.65 8.668 8.668 0 0 0-.271 3.108l.006.072a8.805 8.805 0 0 0 .808 3.032 8.101 8.101 0 0 0 1.716 2.405 6.978 6.978 0 0 0 2.453 1.52c.937.344 1.945.468 3.024.374 1.44-.126 2.633-.498 3.582-1.116.949-.618 1.876-1.429 2.779-2.433l3.84 3.278a18.428 18.428 0 0 1-1.851 2.059 12.03 12.03 0 0 1-2.16 1.632c-.792.47-1.672.852-2.637 1.142-.966.291-2.06.491-3.283.598Zm14.593-27.265L236.238.206l.434 4.963-13.493 1.18.45 5.144 11.874-1.039.434 4.963-11.874 1.038.466 5.325 13.673-1.195.434 4.962-19.143 1.674-2.217-25.357Z"/>
</svg>
