<svg xmlns="http://www.w3.org/2000/svg" width="135" height="30" fill="none" viewBox="0 0 135 30">
  <path fill="#000" d="M26.297 10.835c-4.862.425-8.338 4.448-7.906 9.389.432 4.94 4.455 8.277 9.413 7.843 4.958-.433 8.4-4.485 7.971-9.395-.427-4.878-4.455-8.277-9.478-7.837Zm1.229 13.668c-2.769.243-4.986-1.73-5.239-4.618-.255-2.921 1.553-5.245 4.322-5.487 2.802-.245 5.02 1.76 5.273 4.648.252 2.888-1.588 5.215-4.356 5.457Zm8.887-10.77 2.415-.21 1.151 13.158 3.863-.338-1.45-16.592-6.279.549.3 3.434Zm-28.189 2.27c2.029-.176 3.749.935 4.522 2.742l4.09-.357c-1.089-3.914-4.609-6.323-8.89-5.95-4.863.427-8.339 4.45-7.907 9.392.432 4.942 4.455 8.277 9.414 7.843 4.185-.366 7.298-3.354 7.688-7.431l-4.058.355c-.417 1.912-1.914 3.337-3.943 3.514-2.802.245-4.953-1.734-5.206-4.622-.254-2.92 1.49-5.24 4.29-5.485Zm101.884-5.415-2.869-.17c-1.369-.073-2.374-.438-2.467-1.497-.101-1.155 1.105-1.842 2.81-1.992 1.868-.163 3.13.535 3.502 1.828l3.735-.327c-.711-3.3-3.458-5.032-7.417-4.686-4.09.357-6.612 2.68-6.353 5.632.246 2.824 2.161 4.307 5.779 4.507l2.869.169c1.402.07 2.223.55 2.313 1.577.115 1.315-1.19 1.979-3.057 2.142-2.287.2-3.656-.618-3.972-2.013l-3.8.333c.639 3.21 3.381 5.266 8.017 4.86 4.218-.37 6.85-2.54 6.561-5.845-.258-2.952-2.421-4.316-5.651-4.518ZM39.862 3.084c-1.417.124-2.39 1.244-2.266 2.655.123 1.412 1.275 2.346 2.693 2.222 1.416-.124 2.39-1.244 2.266-2.655-.123-1.412-1.276-2.346-2.693-2.222Zm57.793 7.559c-.314-3.594-2.713-5.81-7.35-5.404-4.379.383-6.632 2.812-6.818 6.256l3.832-.335c.078-1.333 1.013-2.514 3.203-2.706 1.964-.171 3.006.61 3.098 1.67.121 1.38-1.62 1.887-3.789 2.303-2.934.58-6.515 1.928-6.178 5.779.261 2.985 2.651 4.715 6.193 4.406 2.769-.243 4.406-1.55 5.116-3.456.272 1.626 1.588 2.578 3.295 2.429l2.254-.197-.3-3.434-1.901.166-.653-7.478h-.002Zm-3.434 4.504c.194 2.215-1.595 4.02-3.946 4.226-1.449.126-2.726-.376-2.838-1.66-.143-1.636 1.782-2.257 3.568-2.607 1.725-.312 2.657-.782 3.076-1.563l.14 1.604ZM72.822 6.766c-2.158.189-3.882 1.246-5.038 2.866L66.99.55l-3.863.338 2.062 23.588 3.799-.332-.191-2.182c1.425 1.46 3.343 2.23 5.532 2.038 4.636-.405 7.826-4.37 7.394-9.313-.432-4.942-4.329-8.32-8.901-7.921Zm.616 13.723c-2.769.242-4.986-1.731-5.238-4.62-.253-2.887 1.617-5.25 4.386-5.491 2.802-.245 4.953 1.734 5.208 4.653.252 2.888-1.587 5.216-4.356 5.458ZM54.469 8.37c-2.511.22-4.064 1.39-4.903 2.919l-.188-2.15-3.832.335 1.45 16.59 3.864-.337-.789-9.017c-.221-2.536 1.231-4.473 3.614-4.682 2.222-.194 3.743 1.257 3.942 3.536l.831 9.5 3.864-.338-.856-9.788c-.364-4.173-2.778-6.937-6.997-6.568Zm79.365 1.21c-.415-4.75-4.184-7.783-8.853-7.374-4.958.433-8.271 4.474-7.842 9.384.452 5.167 4.648 8.259 9.413 7.843 4.025-.352 6.973-3.003 7.482-6.443l-4.025.352c-.45 1.527-1.794 2.486-3.694 2.652-2.48.217-4.482-1.161-5.136-3.82l12.783-1.118-.128-1.476Zm-12.67-.186c.411-2.364 2.051-3.64 4.047-3.814 2.189-.191 3.973.914 4.55 3.062l-8.597.752Z"/>
</svg>
