<svg xmlns="http://www.w3.org/2000/svg" width="416" height="434" fill="none" viewBox="0 0 416 434">
  <g clip-path="url(#a)">
    <path stroke="url(#b)" stroke-width="22.657" d="M221.805 431.319c76.663 1.024 124.554-59.882 106.969-136.037-17.586-76.155-93.989-138.721-170.652-139.745-76.663-1.024-124.554 59.881-106.968 136.037 17.585 76.155 93.989 138.721 170.651 139.745Z"/>
    <path fill="url(#c)" fill-opacity=".9" d="M400.848 117.258 216.048 8.377c-7.851-4.626-16.225-1.162-18.704 7.736L116.548 306.14c-2.479 8.899 1.876 19.862 9.727 24.488l184.8 108.882c7.851 4.625 16.225 1.161 18.704-7.737l80.795-290.027c2.479-8.898-1.875-19.862-9.726-24.488Z"/>
    <path stroke="url(#d)" stroke-width="1.184" d="M401.072 116.453 216.271 7.571c-8.243-4.857-17.036-1.22-19.639 8.124L115.836 305.72c-2.603 9.344 1.97 20.856 10.213 25.713L310.85 440.316c8.243 4.857 17.036 1.219 19.639-8.124l80.796-290.027c2.603-9.344-1.97-20.855-10.213-25.712Z"/>
    <path fill="url(#e)" d="M197.343 16.113c2.478-8.899 10.854-12.363 18.704-7.737l184.801 108.882c7.85 4.625 12.205 15.589 9.726 24.487l-26.483 95.065-213.232-125.633 26.484-95.064Z"/>
    <path fill="#C9FA49" fill-rule="evenodd" d="m400.848 117.258-49.754-29.315-6.733 24.169-2.244 8.056-13.466 48.339 49.754 29.313 13.466-48.338 2.243-8.055 6.734-24.169Zm-53.279 13.85-.949 3.411 2.263 1.332-4.42 15.861 3.359 1.979 5.369-19.271-5.622-3.312Zm10.216 19.498c-1.147.412-2.662.883-4.548 1.414l-1.537.448-.765 2.75 11.52 6.788.854-3.067-6.879-4.054c1.716-.506 3.122-.972 4.217-1.394 1.1-.438 2.149-1.091 3.152-1.958 1.001-.866 1.693-1.987 2.076-3.361.487-1.745.402-3.426-.251-5.042-.649-1.634-1.86-2.973-3.633-4.017-1.617-.953-3.106-1.194-4.468-.725-1.345.479-2.345 1.758-2.995 3.836l3.171 1.868c.301-1.012.742-1.685 1.323-2.021.586-.351 1.269-.298 2.047.16.776.459 1.281 1.053 1.511 1.783.232.732.222 1.547-.029 2.446-.275.986-.85 1.817-1.725 2.49-.876.675-1.89 1.227-3.041 1.656Zm11.196-1.282c-.535 1.921-.153 3.798 1.147 5.63-.968-.099-1.808.125-2.521.67-.709.526-1.216 1.344-1.527 2.455a7.25 7.25 0 0 0-.083 3.613 8.92 8.92 0 0 0 1.625 3.327 10.388 10.388 0 0 0 2.951 2.568c1.165.688 2.281 1.068 3.346 1.142 1.066.074 1.986-.174 2.759-.744.795-.578 1.359-1.466 1.693-2.665a6.568 6.568 0 0 0 .081-3.307 7.621 7.621 0 0 0-1.491-3.033c.813.007 1.53-.226 2.151-.701.625-.494 1.073-1.225 1.344-2.194.264-.952.288-1.943.068-2.976-.199-1.04-.67-2.046-1.412-3.017-.724-.979-1.707-1.835-2.951-2.568-1.244-.733-2.367-1.118-3.369-1.156-.984-.046-1.803.201-2.459.737-.637.528-1.087 1.268-1.352 2.219Zm8.015 3c.334.75.381 1.558.14 2.421-.221.792-.641 1.293-1.261 1.504-.614.191-1.295.068-2.041-.372a3.99 3.99 0 0 1-1.643-1.8 3.325 3.325 0 0 1-.169-2.315c.245-.882.66-1.426 1.242-1.637.599-.201 1.289-.072 2.065.386.793.467 1.349 1.071 1.667 1.813Zm-6.296 5.738c.703-.181 1.497-.011 2.384.511.886.522 1.527 1.208 1.925 2.057.401.832.471 1.715.212 2.649-.241.864-.704 1.421-1.389 1.675-.687.251-1.488.107-2.405-.434-.918-.54-1.572-1.243-1.965-2.111-.372-.874-.434-1.753-.188-2.635.264-.951.74-1.522 1.426-1.712Zm-31.525.525c.16-.575.421-1.022.782-1.34a1.981 1.981 0 0 1 1.259-.5c.481-.018.962.114 1.445.398.552.325.998.77 1.341 1.332.348.56.54 1.178.576 1.856l-1.022-.601a2.34 2.34 0 0 0-.366-1.025 2.355 2.355 0 0 0-.765-.716c-.344-.202-.674-.294-.992-.279a1.283 1.283 0 0 0-.843.38c-.241.239-.421.576-.542 1.01a3.088 3.088 0 0 0-.094 1.274c.062.419.204.796.421 1.135.221.334.502.601.846.803.314.184.61.271.892.259.281-.011.532-.133.753-.363l1.022.602c-.351.45-.785.7-1.304.749-.511.052-1.044-.083-1.597-.409a3.805 3.805 0 0 1-1.23-1.169 4.373 4.373 0 0 1-.663-1.641 3.88 3.88 0 0 1 .081-1.755Zm9.419 8.987-.538-3.055-.649-.382-.656 2.352-.85-.501 1.638-5.88 1.79 1.056a3 3 0 0 1 .942.831c.235.321.382.655.443.999a2.19 2.19 0 0 1-.038 1.01c-.107.383-.304.675-.591.873-.28.197-.641.231-1.08.103l.604 3.193-1.015-.599Zm-.973-4.207.94.553c.319.189.582.24.792.152.215-.084.364-.277.449-.582a1.263 1.263 0 0 0-.04-.852c-.111-.267-.329-.498-.652-.687l-.94-.555-.549 1.971Zm9.968 2.663-2.759 2.736-.595 2.132-.85-.501.594-2.132-.68-4.763.947.559.398 3.593 2.005-2.178.94.554Zm5.309 5.165a1.61 1.61 0 0 1-.423.736c-.199.193-.458.292-.778.3-.321.003-.694-.123-1.122-.375l-.94-.553-.664 2.384-.85-.5 1.637-5.879 1.79 1.054c.398.235.713.513.942.831a2.31 2.31 0 0 1 .408 2.002Zm-2.103-.125c.324.191.587.251.792.181.207-.075.352-.265.437-.569.179-.644-.053-1.153-.695-1.533l-.94-.553-.535 1.92.941.554Zm8.244 1.706-.219.787-1.38-.814-1.418 5.093-.852-.501 1.419-5.093-1.388-.818.219-.786 3.619 2.132Zm3.066 8.72a3.86 3.86 0 0 1-1.23-1.168 4.38 4.38 0 0 1-.663-1.641 3.94 3.94 0 0 1 .084-1.763c.159-.576.42-1.023.782-1.342a1.976 1.976 0 0 1 1.259-.499c.479-.019.962.114 1.445.399.486.287.895.679 1.227 1.176.337.494.559 1.038.665 1.633a3.905 3.905 0 0 1-.08 1.754c-.161.575-.422 1.025-.785 1.35-.36.319-.781.489-1.262.507-.473.017-.954-.119-1.442-.406Zm.234-.838c.343.203.673.296.991.279.318-.023.599-.153.838-.392.247-.242.432-.58.552-1.015.121-.434.15-.86.088-1.277a2.686 2.686 0 0 0-.418-1.123 2.571 2.571 0 0 0-.844-.803c-.344-.201-.674-.295-.992-.278a1.286 1.286 0 0 0-.844.378c-.24.239-.42.576-.542 1.01a3.16 3.16 0 0 0-.096 1.283c.062.418.204.796.422 1.136.22.332.502.6.845.802Z" clip-rule="evenodd"/>
    <path fill="#fff" d="M238.769 80.427c-1.074 3.679 1.241 7.448 3.075 9.96 1.886 2.578 2.413 3.83 2.09 4.952-.498 1.715-2.477 1.435-4.139.49-2.901-1.648-4.313-3.59-5.446-5.098l-2.608 5.022c1.139 1.502 3.443 3.585 6.006 5.127 6.032 3.553 10.938 2.43 12.449-2.905 1.914-6.772-6.108-11.937-5.208-14.937.276-.909 1.306-1.444 3.037-.715.857.358 3.152 1.598 5.341 4.486l2.528-4.857c-1.22-1.398-2.843-3.004-5.056-4.308-5.677-3.345-10.644-2.202-12.069 2.782Zm27.013 6.568c-1.101-.648-2.236-.452-2.968.447l-15.255 18.753 6.026 3.551 2.27-3.133 7.365 4.34-.373 4.249 5.312 3.13 2.528-28.447-4.905-2.89Zm-1.092 7.444-.95 10.681-4.765-2.807 5.715-7.874ZM233.698 68.09l-11.916 22.917 5.744 3.383 11.912-22.917-5.74-3.383Zm-8.498-5.006-10.853 13.98 1.728-16.306c.178-1.83-.676-3.449-1.92-4.181l-9.773-5.759-.344.666c1.865 1.687 3.919 3.843 5.057 5.527.697 1.03.809 1.636.734 3.063l-1.136 23.22 6.07 3.577 16.469-20.233-6.032-3.554Zm-25.205 99.548c-.046.16-.11.254-.196.281-.082.033-.199.005-.353-.085-.154-.091-.255-.191-.303-.302-.043-.103-.043-.235.002-.395l1.33-4.773c.044-.16.108-.257.19-.291.084-.027.205.005.359.096s.252.188.296.29c.048.11.049.246.003.406l-.529 1.905 5.359 3.158-.477-2.333a.592.592 0 0 1-.001-.256c.041-.152.163-.231.364-.239a.535.535 0 0 1 .315.07c.141.082.23.22.264.411l.705 3.523a.701.701 0 0 1-.004.327c-.028.104-.083.171-.163.2-.079.037-.172.022-.281-.041l-6.378-3.757-.502 1.805Zm5.057 9.855c-.153.546-.373.975-.663 1.282-.286.314-.625.488-1.018.521-.392.034-.815-.084-1.268-.351a3.205 3.205 0 0 1-1.074-1.054c-.288-.445-.589-1.053-.902-1.826l-1.468-3.634-.857 3.074.788.463c.146.086.239.188.279.305.04.116.033.272-.021.466-.054.194-.123.311-.208.355-.085.044-.2.023-.345-.064l-1.212-.714c-.156-.091-.255-.191-.303-.302-.044-.102-.042-.233.002-.395l1.369-4.913c.044-.161.108-.257.189-.291.086-.027.206.004.36.095.158.093.26.195.307.305l1.918 4.758c.271.663.511 1.16.721 1.487.212.334.468.589.769.766.386.227.732.267 1.035.116.307-.143.533-.473.676-.987a3.754 3.754 0 0 0 .058-1.672l-.686-.405c-.146-.086-.239-.187-.279-.304-.04-.118-.033-.273.021-.466.052-.194.122-.313.208-.355.084-.044.199-.023.345.062l.918.542c.162.095.262.218.298.365.125.474.193.948.201 1.421.014.474-.039.924-.158 1.35Zm-2.442 8.765c-.151.544-.369.967-.652 1.272-.28.309-.607.481-.981.52-.371.039-.763-.063-1.179-.309a2.404 2.404 0 0 1-.853-.832 2.998 2.998 0 0 1-.395-1.163c-.279.335-.602.532-.972.589-.37.062-.768-.033-1.194-.283a3.278 3.278 0 0 1-1.102-1.053 3.399 3.399 0 0 1-.527-1.473 4.408 4.408 0 0 1 .149-1.742c.129-.463.33-.888.604-1.277.273-.389.582-.697.927-.928.132-.088.255-.098.372-.028.083.048.175.148.272.3.141.226.191.414.148.566a.352.352 0 0 1-.148.192c-.29.191-.547.433-.77.726a3.012 3.012 0 0 0-.48.993c-.163.586-.166 1.103-.011 1.553.161.451.454.802.878 1.053.428.251.797.288 1.105.106.311-.174.542-.539.698-1.097l.144-.516c.044-.162.108-.258.19-.292.086-.027.205.004.359.095.154.092.254.188.298.291.046.111.047.245.003.406l-.108.39c-.15.537-.164 1.004-.042 1.401.122.396.374.707.759.934.353.208.669.232.947.07.281-.158.493-.492.635-1.002.152-.547.201-1.06.145-1.538l-.418-.246c-.146-.086-.239-.188-.279-.304-.04-.118-.033-.273.021-.467.052-.193.122-.312.208-.355.084-.044.199-.023.345.063l.681.402c.091.054.161.11.206.171a.62.62 0 0 1 .097.23 5.48 5.48 0 0 1-.08 2.582Zm-2.74 9.835c-.114.41-.334.521-.659.33l-3.967-2.338-.319 1.148c-.044.16-.109.253-.194.28-.083.034-.201.006-.355-.085-.154-.091-.255-.191-.301-.301-.044-.104-.044-.235 0-.395l.32-1.148-1.399-.824-.26.934c-.045.162-.11.255-.196.282-.082.034-.2.006-.354-.085-.153-.092-.255-.192-.302-.301-.043-.104-.043-.235.002-.397l.848-3.043c.045-.162.108-.258.19-.292.085-.027.205.004.359.096.154.091.253.187.297.29.047.111.049.245.004.407l-.292 1.047 1.399.825.943-3.385c.044-.16.108-.258.19-.292.086-.027.205.005.359.097.137.08.229.161.274.243l3.249 5.904c.1.179.165.348.194.502.031.154.02.321-.03.501Zm-3.655-5.492-.674 2.423 3.082 1.882-2.408-4.305Zm-1.591 23.751c-.044.16-.109.253-.194.28-.083.034-.201.006-.355-.085-.154-.09-.255-.191-.302-.301-.043-.103-.043-.235.001-.395l.92-3.3-1.981-1.274c.103.61.078 1.186-.073 1.73-.158.566-.401.995-.729 1.285-.328.29-.712.431-1.151.426-.437.001-.899-.142-1.386-.429a3.71 3.71 0 0 1-1.21-1.142 4.067 4.067 0 0 1-.506-3.348c.126-.453.319-.869.579-1.25.262-.379.559-.688.892-.925.127-.095.255-.105.38-.031.091.053.18.15.267.29.146.227.197.417.154.569a.343.343 0 0 1-.148.192 3.137 3.137 0 0 0-.734.73 3 3 0 0 0-.465.97 2.65 2.65 0 0 0-.08 1.116c.059.364.189.691.39.979.203.296.467.539.792.73.309.182.6.272.878.271.276.003.517-.089.724-.275.205-.181.356-.446.454-.795.089-.321.132-.631.128-.931 0-.296-.042-.609-.123-.938a.85.85 0 0 1 .036-.391c.055-.198.126-.321.212-.369.084-.044.198-.019.341.078l3.084 1.981c.144.096.236.199.277.311.042.113.035.266-.018.46l-1.054 3.781Zm-2.347 9.003c-.032.129-.097.206-.196.23-.1.029-.256-.019-.469-.144a.708.708 0 0 1-.262-.236.332.332 0 0 1-.033-.244c.291-1.289.272-2.424-.055-3.403-.325-.976-.91-1.791-1.756-2.444.215.412.349.844.404 1.292.054.45.023.878-.089 1.284-.144.519-.373.929-.685 1.229-.312.305-.681.47-1.104.494-.426.03-.872-.092-1.338-.366a3.32 3.32 0 0 1-1.111-1.076 3.707 3.707 0 0 1-.545-1.517 4.132 4.132 0 0 1 .122-1.691c.143-.515.38-.928.709-1.239a1.875 1.875 0 0 1 1.195-.507c.652-.04 1.408.194 2.27.702a6.516 6.516 0 0 1 1.898 1.721c.545.727.924 1.593 1.139 2.599.218 1.012.186 2.117-.094 3.316Zm-3.338-4.366c.097-.344.125-.687.084-1.03a2.289 2.289 0 0 0-.295-.924 1.754 1.754 0 0 0-.631-.635c-.291-.172-.571-.252-.842-.241-.271.016-.508.12-.712.314-.205.197-.358.476-.458.835a2.64 2.64 0 0 0-.087 1.044c.041.339.147.643.319.915.176.273.406.493.689.66.287.17.559.245.817.227a.978.978 0 0 0 .671-.323c.194-.192.342-.474.445-.842Zm.681 13.326c-.045.16-.11.255-.194.282-.084.034-.201.005-.355-.087a.95.95 0 0 1-.239-.189l-5.749-6.899a.653.653 0 0 1-.155-.331.76.76 0 0 1 .015-.369c.047-.17.118-.292.209-.362.088-.071.182-.075.282-.017a.51.51 0 0 1 .145.127l5.414 6.545.935-3.357-.911-.538c-.147-.085-.24-.186-.281-.304-.038-.116-.031-.272.021-.465.054-.194.124-.312.208-.356.086-.043.201-.022.347.064l1.337.787c.154.092.253.188.296.291.048.111.049.245.005.406l-1.33 4.772Zm-1.591 6.285c-.137.489-.352.88-.646 1.169-.29.295-.625.462-1.005.503-.38.04-.759-.052-1.139-.274a2.212 2.212 0 0 1-.814-.861 3.689 3.689 0 0 1-.413-1.232c-.298.337-.639.545-1.025.625-.387.08-.783 0-1.191-.24a3.033 3.033 0 0 1-1.058-1.06 3.873 3.873 0 0 1-.517-1.509 4.072 4.072 0 0 1 .118-1.652c.152-.548.388-.984.706-1.308.319-.324.683-.509 1.094-.559.416-.047.837.057 1.266.31.409.24.732.584.97 1.033.239.449.386.941.44 1.479.263-.252.559-.408.886-.467.326-.055.657.015.994.215.38.223.696.54.949.954.254.413.414.871.484 1.372.07.51.039 1.011-.099 1.502Zm-.925-.545c.082-.293.107-.583.075-.872a1.877 1.877 0 0 0-.249-.773 1.534 1.534 0 0 0-.556-.558.965.965 0 0 0-.637-.145.937.937 0 0 0-.564.302 1.624 1.624 0 0 0-.368.69c-.079.285-.1.57-.065.861.035.295.121.56.259.795s.314.416.526.54c.233.138.456.193.667.163a.885.885 0 0 0 .552-.31c.159-.17.279-.402.36-.693Zm-3.167-1.867c.096-.345.125-.682.086-1.013a2.246 2.246 0 0 0-.301-.903 1.768 1.768 0 0 0-.627-.624c-.257-.153-.508-.215-.754-.189a1.09 1.09 0 0 0-.654.339c-.186.198-.328.47-.423.815a2.603 2.603 0 0 0-.086 1.012c.043.334.145.634.309.9.162.272.373.483.631.635.258.152.507.211.75.179.244-.027.46-.139.646-.337s.328-.47.423-.814Zm-.753 19.802c-.136.491-.352.88-.645 1.169a1.618 1.618 0 0 1-1.006.503c-.379.04-.759-.052-1.137-.274-.339-.2-.61-.486-.816-.861a3.681 3.681 0 0 1-.413-1.232c-.297.337-.639.545-1.025.625-.385.08-.783 0-1.191-.24a3.042 3.042 0 0 1-1.058-1.06 3.862 3.862 0 0 1-.517-1.509 4.09 4.09 0 0 1 .119-1.652c.153-.548.387-.984.706-1.308.318-.323.682-.509 1.093-.559.416-.047.837.057 1.267.31.408.241.731.584.969 1.033.24.449.386.941.44 1.479.263-.252.559-.408.886-.467.326-.055.657.015.996.215.378.223.694.542.948.954.252.413.413.871.483 1.372.07.51.039 1.011-.099 1.502Zm-.923-.545c.08-.293.105-.583.075-.872a1.914 1.914 0 0 0-.25-.772 1.539 1.539 0 0 0-.557-.559.97.97 0 0 0-.637-.145.944.944 0 0 0-.564.303 1.63 1.63 0 0 0-.366.691 2.17 2.17 0 0 0-.066.859c.034.295.121.56.258.795.139.236.314.416.526.54.233.138.456.193.668.163a.87.87 0 0 0 .551-.31c.159-.169.28-.402.362-.693Zm-3.169-1.867a2.59 2.59 0 0 0 .086-1.013 2.262 2.262 0 0 0-.301-.903 1.787 1.787 0 0 0-.625-.624c-.259-.151-.51-.215-.754-.189a1.092 1.092 0 0 0-.656.339c-.186.198-.326.47-.423.815a2.603 2.603 0 0 0-.086 1.012c.043.334.147.634.31.9.161.272.372.483.63.636.258.151.509.21.75.178a1.02 1.02 0 0 0 .646-.337c.187-.198.328-.47.423-.814Zm.839 13.517c-.046.162-.109.255-.195.282-.082.034-.2.006-.354-.085a.98.98 0 0 1-.239-.19l-5.75-6.9a.67.67 0 0 1-.155-.331.761.761 0 0 1 .016-.369c.047-.17.117-.29.21-.362.087-.07.18-.075.281-.016a.501.501 0 0 1 .146.128l5.413 6.543.935-3.357-.912-.536c-.146-.086-.239-.188-.279-.306-.04-.116-.033-.271.021-.465.054-.194.123-.312.208-.355.084-.044.199-.023.346.063l1.337.788c.154.091.252.187.297.291.047.11.048.244.003.406l-1.329 4.771Zm-2.188 8.43c-.032.13-.097.207-.196.231-.101.029-.256-.019-.468-.145a.684.684 0 0 1-.262-.236.332.332 0 0 1-.035-.242c.293-1.29.273-2.425-.054-3.405-.325-.976-.91-1.791-1.756-2.443.215.413.35.843.404 1.293.054.449.023.877-.089 1.283-.145.52-.373.929-.685 1.229-.312.304-.681.47-1.104.495-.425.03-.872-.093-1.338-.368a3.295 3.295 0 0 1-1.11-1.075 3.693 3.693 0 0 1-.545-1.516 4.102 4.102 0 0 1 .122-1.692c.142-.515.38-.929.708-1.24a1.88 1.88 0 0 1 1.195-.507c.652-.039 1.408.194 2.27.702a6.52 6.52 0 0 1 1.899 1.721c.545.727.923 1.593 1.138 2.6.217 1.011.186 2.117-.094 3.315Zm-3.338-4.364c.097-.345.125-.689.085-1.032a2.342 2.342 0 0 0-.296-.924 1.767 1.767 0 0 0-.63-.635c-.292-.171-.573-.252-.842-.241a1.11 1.11 0 0 0-.713.315c-.205.198-.358.475-.458.834a2.63 2.63 0 0 0-.088 1.045c.043.338.148.642.32.914.176.274.405.494.689.661.287.17.559.245.817.226a.98.98 0 0 0 .671-.321c.194-.194.343-.474.445-.842Zm.841 12.751c-.045.16-.11.255-.195.282-.083.034-.201.006-.355-.086-.153-.091-.253-.191-.3-.3-.045-.104-.045-.235 0-.397l.919-3.298-1.979-1.274a3.962 3.962 0 0 1-.075 1.728c-.158.566-.4.995-.728 1.285-.328.29-.712.433-1.152.426-.437.001-.899-.142-1.385-.429a3.724 3.724 0 0 1-1.21-1.14 3.96 3.96 0 0 1-.614-1.582 4.105 4.105 0 0 1 .107-1.768 4.14 4.14 0 0 1 .581-1.248 3.7 3.7 0 0 1 .89-.926c.128-.094.255-.106.38-.032.092.054.18.15.268.29.145.228.197.417.155.569a.35.35 0 0 1-.148.192 3.09 3.09 0 0 0-.735.731 2.998 2.998 0 0 0-.466.969 2.65 2.65 0 0 0-.079 1.116c.059.364.188.691.389.98.204.295.468.539.794.731.307.181.6.271.876.269a1.03 1.03 0 0 0 .724-.274c.205-.182.358-.446.455-.796.088-.321.131-.631.127-.929 0-.298-.04-.61-.123-.939a.872.872 0 0 1 .036-.392c.055-.198.126-.321.212-.369.085-.044.198-.017.343.078l3.084 1.982c.142.095.234.199.275.312.042.112.037.264-.018.458l-1.053 3.781Zm-4.443 16.523c-.114.41-.334.521-.659.328l-3.967-2.336-.319 1.146c-.045.162-.11.255-.196.282-.081.034-.199.006-.353-.085-.154-.091-.255-.191-.303-.301-.043-.104-.043-.235.002-.395l.32-1.148-1.4-.825-.26.935c-.045.16-.109.254-.195.281-.082.034-.2.005-.354-.085-.154-.091-.255-.191-.302-.302-.043-.102-.043-.233.001-.395l.849-3.043c.044-.162.108-.259.19-.293.084-.027.205.005.359.096s.252.188.297.29c.047.11.048.246.003.406l-.292 1.049 1.399.823.943-3.383c.045-.161.109-.258.19-.293.086-.026.206.006.36.096.137.082.228.163.273.245l3.25 5.904c.1.179.165.346.194.502.031.154.02.321-.03.501Zm-3.656-5.492-.673 2.421 3.082 1.882-2.409-4.303Zm1.551 13.047c-.151.542-.369.967-.652 1.272-.28.307-.607.482-.982.518-.369.041-.762-.062-1.178-.307a2.413 2.413 0 0 1-.853-.832 3.003 3.003 0 0 1-.395-1.164c-.278.336-.602.533-.972.59-.371.062-.769-.033-1.193-.283a3.284 3.284 0 0 1-1.104-1.053 3.42 3.42 0 0 1-.527-1.473 4.425 4.425 0 0 1 .15-1.742c.129-.463.33-.889.603-1.277.273-.389.583-.699.928-.929.132-.088.255-.097.372-.029.083.05.174.15.273.302.14.225.19.414.147.564a.343.343 0 0 1-.149.194 3.135 3.135 0 0 0-.768.725 3.034 3.034 0 0 0-.481.995c-.164.585-.166 1.102-.011 1.552.161.451.453.802.878 1.053.429.252.797.287 1.105.106.31-.174.543-.541.699-1.097l.142-.516c.046-.162.109-.259.192-.293.084-.027.204.005.358.096.154.09.253.188.298.291.047.109.047.245.002.405l-.108.391c-.149.537-.163 1.004-.041 1.401.122.396.374.707.758.932.354.21.67.234.947.072.282-.158.494-.492.635-1.002.153-.547.202-1.059.146-1.538l-.419-.247c-.145-.085-.238-.187-.278-.305-.041-.116-.034-.271.02-.465.054-.194.124-.312.208-.355.085-.044.2-.023.346.063l.68.401a.742.742 0 0 1 .207.171.618.618 0 0 1 .097.231c.178.89.151 1.752-.08 2.582Zm-2.402 8.624c-.153.547-.374.975-.663 1.283-.287.314-.627.488-1.018.521-.392.033-.815-.085-1.27-.352a3.198 3.198 0 0 1-1.073-1.053c-.289-.444-.589-1.053-.903-1.826l-1.467-3.634-.855 3.074.786.463c.147.086.24.188.278.304.041.117.034.273-.019.467-.054.192-.123.311-.209.355-.085.043-.2.021-.346-.064l-1.212-.714c-.153-.091-.255-.191-.3-.302-.045-.101-.045-.233 0-.394l1.37-4.914c.044-.161.108-.259.19-.293.084-.026.203.006.359.097.158.093.26.195.306.305l1.919 4.757c.271.665.511 1.161.72 1.488.212.334.469.589.768.766.388.228.734.266 1.037.116.307-.143.532-.473.676-.988a3.749 3.749 0 0 0 .058-1.671l-.688-.405c-.145-.086-.238-.188-.279-.304-.04-.118-.033-.273.021-.466.054-.194.124-.312.208-.356.085-.043.2-.022.347.063l.918.542c.162.095.262.217.298.365.125.475.191.949.201 1.421.013.474-.04.924-.158 1.349Zm-9.904 7.537c-.044.16-.109.253-.194.28-.081.034-.199.005-.353-.085-.156-.091-.255-.191-.303-.302-.044-.103-.043-.234.002-.394l1.33-4.773c.044-.16.108-.258.19-.292.084-.027.203.006.359.096.154.091.252.188.296.29.048.111.049.247.003.406l-.529 1.905 5.359 3.159-.477-2.334a.597.597 0 0 1-.001-.257c.041-.15.163-.23.364-.238a.542.542 0 0 1 .315.069c.142.084.23.221.264.412l.705 3.524a.701.701 0 0 1-.004.327c-.029.103-.083.169-.165.199-.077.037-.17.023-.279-.041l-6.378-3.757-.504 1.806Zm31.167-164.346c-.037.133-.091.211-.162.233-.069.029-.168.005-.295-.07a.59.59 0 0 1-.253-.251.5.5 0 0 1 .002-.33l.33-1.186-3.737-2.203c-.608-.356-1.013-.829-1.212-1.413-.201-.586-.195-1.264.02-2.035.125-.449.308-.815.549-1.099.243-.278.522-.471.834-.58.084-.024.182-.004.292.063l1.484.873a.498.498 0 0 1 .232.254c.033.098.027.227-.017.388s-.102.261-.173.296c-.071.037-.167.018-.289-.052l-1.374-.81c-.352.177-.609.552-.768 1.127-.144.515-.147.948-.011 1.299.137.351.414.649.835.897l3.581 2.11.561-2.013c.037-.133.09-.213.159-.242.071-.022.171.005.298.08.129.076.211.157.248.242a.503.503 0 0 1 .003.338l-1.137 4.084Zm-1.113 4.474c-.172.614-.457 1.076-.853 1.387-.4.314-.878.457-1.434.426-.555-.024-1.15-.224-1.785-.599a5.327 5.327 0 0 1-1.573-1.379 4.4 4.4 0 0 1-.82-1.755 3.832 3.832 0 0 1 .055-1.855c.172-.614.455-1.078.851-1.395.397-.312.873-.455 1.428-.429.557.03 1.153.232 1.789.607a5.343 5.343 0 0 1 1.568 1.371c.414.545.689 1.131.826 1.756.136.63.118 1.251-.052 1.865Zm-.771-.454c.12-.432.127-.872.022-1.319a3.225 3.225 0 0 0-.637-1.261 4.461 4.461 0 0 0-1.217-1.027c-.492-.29-.947-.454-1.365-.494-.414-.034-.766.054-1.055.263-.29.215-.495.538-.616.971-.12.433-.127.87-.02 1.313.105.447.316.866.631 1.258a4.34 4.34 0 0 0 1.216 1.032c.492.291.948.454 1.366.49.417.039.771-.047 1.06-.261.29-.211.494-.532.615-.965Zm-2.137 10.412c-.038.133-.092.213-.162.234-.068.028-.167.005-.296-.071a.562.562 0 0 1-.251-.25c-.037-.087-.036-.196 0-.33l.119-.425-4.763-2.806-.119.425c-.036.133-.09.212-.162.233-.068.029-.167.006-.296-.071-.127-.075-.212-.158-.251-.25a.5.5 0 0 1 .002-.33l.516-1.852c.037-.134.09-.215.158-.243.072-.023.17.004.299.079.129.076.211.157.248.243a.515.515 0 0 1 .003.338l-.151.542 2.123 1.251.82-2.937-2.125-1.251-.151.542c-.037.134-.091.212-.162.235-.069.028-.168.004-.296-.071-.128-.077-.212-.16-.251-.252-.037-.085-.037-.195 0-.33l.516-1.852c.038-.133.09-.215.16-.244.071-.021.17.005.298.081.129.075.212.156.248.242.039.092.04.204.003.338l-.118.425 4.763 2.806.118-.425c.038-.133.09-.215.16-.243.07-.021.17.004.298.081.129.075.21.155.248.242.039.092.04.203.003.338l-.516 1.852c-.038.135-.092.212-.162.235-.07.028-.168.004-.296-.071a.578.578 0 0 1-.252-.252.503.503 0 0 1 .001-.329l.151-.542-1.931-1.138-.818 2.938 1.931 1.138.151-.542c.038-.135.091-.216.159-.244.07-.023.17.004.299.079.128.077.211.157.247.244.04.09.04.204.003.338l-.516 1.852Zm-2.034 7.305c-.038.134-.092.212-.163.235-.069.028-.167.004-.295-.072a.571.571 0 0 1-.252-.251.503.503 0 0 1 .001-.329l.094-.336-5.279-3.11a.424.424 0 0 1-.193-.245.632.632 0 0 1 .009-.379c.058-.208.199-.317.424-.327l5.68-.219.005-.023-4.289-2.527-.231.83c-.038.135-.092.212-.162.235-.07.028-.168.004-.296-.071a.57.57 0 0 1-.251-.252c-.037-.084-.037-.195 0-.328l.583-2.088c.037-.135.09-.216.158-.244.071-.023.17.004.299.079.128.077.211.157.247.242.04.092.04.206.003.339l-.11.396 4.764 2.806.126-.454c.037-.135.09-.215.159-.244.071-.022.171.005.298.081.129.075.211.156.249.242a.51.51 0 0 1 .002.338l-.368 1.322a.43.43 0 0 1-.093.185.219.219 0 0 1-.146.065l-5.194.196-.007.024 3.853 2.269.198-.714c.038-.133.091-.215.159-.244.072-.021.17.005.299.081.129.075.211.156.248.242a.516.516 0 0 1 .003.338l-.532 1.912Zm-3.248 11.653c-.172.619-.448 1.087-.828 1.408-.377.323-.835.474-1.375.455-.537-.015-1.122-.208-1.753-.581a5.076 5.076 0 0 1-1.537-1.358 4.218 4.218 0 0 1-.771-1.718 4.032 4.032 0 0 1 .085-1.847l.774-2.778c.037-.134.09-.215.159-.243.071-.023.171.004.298.079.129.077.211.157.249.242.038.092.04.206.002.339l-.184.66 4.763 2.808.185-.661c.037-.134.09-.215.158-.243.072-.023.17.004.299.079.129.076.211.157.248.242a.516.516 0 0 1 .003.338l-.775 2.779Zm-5.128-4.456-.305 1.097c-.13.468-.154.928-.069 1.381.087.454.281.88.582 1.278.305.4.713.75 1.223 1.05.51.301.969.461 1.376.481.409.021.754-.086 1.036-.324.28-.238.485-.592.615-1.059l.305-1.098-4.763-2.806Zm3.224 11.77c-.17.614-.455 1.076-.853 1.386-.398.316-.876.457-1.434.426-.554-.024-1.149-.223-1.784-.597a5.374 5.374 0 0 1-1.573-1.381 4.402 4.402 0 0 1-.821-1.753 3.828 3.828 0 0 1 .057-1.857c.171-.613.454-1.078.849-1.395.398-.31.874-.453 1.428-.429.558.031 1.154.234 1.789.607a5.378 5.378 0 0 1 1.57 1.371c.413.547.689 1.132.825 1.758.136.63.118 1.251-.053 1.864Zm-.77-.453c.12-.433.128-.873.023-1.321a3.263 3.263 0 0 0-.637-1.26 4.453 4.453 0 0 0-1.217-1.026c-.494-.29-.949-.456-1.366-.496-.415-.034-.766.054-1.055.265-.29.214-.495.536-.616.969a2.577 2.577 0 0 0-.02 1.314c.106.447.317.867.631 1.258.318.397.723.742 1.215 1.033.494.29.949.452 1.367.488.418.041.771-.047 1.061-.261.289-.209.494-.532.614-.963Zm-5.979 7.735c-.046.161-.102.26-.173.297-.071.035-.168.018-.289-.054l-1.546-.911a.563.563 0 0 1-.251-.251.496.496 0 0 1 0-.329l1.47-5.276c.038-.133.09-.214.158-.242.071-.023.171.004.3.079.129.077.211.157.248.242a.516.516 0 0 1 .003.338l-.168.603 4.763 2.806.168-.602c.037-.133.09-.214.158-.242.071-.023.171.004.3.079.127.076.21.157.246.242a.503.503 0 0 1 .003.338l-1.436 5.158c-.038.133-.092.211-.163.234-.068.028-.166.004-.295-.071l-1.322-.78a.484.484 0 0 1-.232-.253c-.034-.098-.028-.227.018-.388.044-.161.102-.26.173-.297.071-.035.166-.018.287.054l.969.57.879-3.157-1.931-1.138-.425 1.523.475.279a.52.52 0 0 1 .235.242c.035.093.029.219-.013.376-.045.157-.1.25-.17.279-.069.032-.165.012-.285-.06l-1.656-.975a.503.503 0 0 1-.234-.247c-.036-.089-.032-.214.012-.371.043-.157.1-.252.171-.285.068-.028.162-.007.284.066l.474.278.425-1.522-2.125-1.251-.912 3.274 1.192.704c.121.07.199.155.232.253s.028.226-.017.388Zm-23.451 77.782c-.036.133-.09.211-.162.233-.068.029-.167.006-.296-.07a.579.579 0 0 1-.251-.251.5.5 0 0 1 .002-.33l1.108-3.976c.037-.134.09-.215.158-.243.07-.023.17.004.299.079.128.076.211.157.247.242.04.092.04.205.003.338l-.441 1.588 4.466 2.632-.398-1.946a.485.485 0 0 1-.001-.212c.035-.126.136-.193.304-.2a.482.482 0 0 1 .263.058c.118.071.19.184.219.343l.588 2.936a.58.58 0 0 1-.003.273c-.025.087-.07.142-.137.167-.065.03-.143.019-.233-.035l-5.315-3.132-.42 1.506Zm4.215 8.212c-.127.457-.31.812-.552 1.068a1.255 1.255 0 0 1-.848.435c-.327.028-.68-.07-1.058-.293a2.677 2.677 0 0 1-.895-.878c-.24-.371-.491-.877-.751-1.521l-1.223-3.028-.714 2.56.656.386a.488.488 0 0 1 .232.255c.034.097.028.226-.016.387-.046.162-.103.261-.173.296-.071.037-.168.02-.289-.052l-1.011-.596c-.127-.075-.212-.158-.251-.25a.5.5 0 0 1 .002-.33l1.139-4.094c.038-.134.091-.215.16-.243.071-.023.17.004.298.079.133.078.218.163.257.255l1.598 3.963c.226.555.426.968.601 1.24.177.279.389.491.64.638.322.191.611.224.864.098.256-.121.443-.395.562-.824.121-.431.137-.897.048-1.392l-.572-.337a.496.496 0 0 1-.232-.255c-.033-.097-.028-.226.017-.388.046-.161.102-.26.173-.295.071-.037.168-.02.289.052l.765.451a.49.49 0 0 1 .248.305c.104.394.16.789.168 1.183.011.396-.033.771-.132 1.125Zm-1.643 9.925a.713.713 0 0 1-.187.344c-.08.072-.161.084-.241.037a.4.4 0 0 1-.084-.07l-7.447-9.005a.483.483 0 0 1-.095-.227.579.579 0 0 1 .014-.267.688.688 0 0 1 .186-.342c.08-.073.161-.085.241-.037a.34.34 0 0 1 .084.069l7.447 9.004a.488.488 0 0 1 .097.222.642.642 0 0 1-.015.272Zm-2.393 4.567c-.128.455-.312.812-.554 1.068a1.254 1.254 0 0 1-.847.435c-.327.028-.679-.07-1.058-.293a2.674 2.674 0 0 1-.894-.878c-.241-.371-.491-.877-.753-1.521l-1.222-3.028-.714 2.56.656.386a.49.49 0 0 1 .233.255c.033.097.028.226-.018.387-.045.162-.103.261-.173.296-.071.037-.167.019-.289-.052l-1.009-.596c-.129-.075-.213-.158-.251-.25-.038-.087-.038-.196 0-.33l1.141-4.095c.037-.133.09-.214.158-.242.072-.023.17.004.299.079.132.078.218.163.257.255l1.599 3.963c.224.555.426.968.599 1.24.177.279.391.491.64.638.324.191.612.222.864.098.257-.121.444-.395.563-.824.121-.432.138-.897.049-1.392l-.573-.339a.488.488 0 0 1-.233-.253c-.033-.098-.026-.226.018-.388.045-.161.103-.26.174-.297.07-.035.166-.018.288.054l.765.451c.135.08.218.182.249.305.104.394.159.789.166 1.183a3.8 3.8 0 0 1-.13 1.125Zm-2.301 8.254c-.094.342-.277.434-.549.274l-3.306-1.947-.266.955c-.037.135-.091.213-.162.235-.068.029-.167.005-.296-.07-.127-.077-.212-.16-.25-.252a.49.49 0 0 1 .001-.329l.266-.956-1.166-.686-.217.778c-.038.133-.092.212-.162.233-.069.029-.167.006-.296-.07a.568.568 0 0 1-.251-.251c-.037-.086-.037-.195.001-.33l.707-2.537c.037-.133.09-.215.158-.243.071-.022.171.004.299.08.128.075.212.156.248.242.038.092.04.204.002.339l-.243.873 1.167.687.785-2.821c.037-.133.09-.214.159-.242.071-.023.171.004.298.079a.594.594 0 0 1 .229.204l2.708 4.92c.084.15.138.289.163.417a.93.93 0 0 1-.027.418Zm-3.045-4.576-.563 2.017 2.57 1.57-2.007-3.587Zm18.638-48.872c-.019.072-.048.113-.086.126-.036.014-.088.001-.156-.039a.304.304 0 0 1-.135-.134c-.019-.045-.019-.103 0-.176l.068-.242-2.483-2.779a.411.411 0 0 1-.106-.204.535.535 0 0 1 .02-.242.37.37 0 0 1 .104-.191c.043-.035.098-.048.169-.036l3.11.529.067-.239c.02-.071.048-.115.084-.13.039-.012.092.002.16.043a.3.3 0 0 1 .133.129.268.268 0 0 1 .001.18l-.328 1.177c-.02.071-.049.113-.086.125-.038.015-.089.003-.158-.038a.319.319 0 0 1-.135-.133.27.27 0 0 1 .001-.176l.124-.444-2.722-.483 2.182 2.419.088-.316c.021-.071.048-.113.084-.129.039-.012.092.002.16.043a.305.305 0 0 1 .133.128c.021.05.021.109.001.182l-.294 1.05Zm-.624 2.244c-.023.083-.056.143-.101.175-.041.036-.098.049-.168.037l-3.048-.502-.052.191c-.021.072-.049.113-.088.126-.036.014-.088.001-.156-.038a.3.3 0 0 1-.135-.135.272.272 0 0 1 0-.175l.311-1.114c.021-.071.048-.115.084-.13.039-.011.092.003.16.042a.309.309 0 0 1 .133.131.265.265 0 0 1 .001.179l-.119.425.734.131.424-1.525-.588-.651-.105.381c-.021.07-.049.113-.088.124-.036.016-.088.003-.156-.038a.302.302 0 0 1-.135-.133.276.276 0 0 1 0-.176l.294-1.051c.02-.071.047-.115.085-.13.037-.011.09.003.159.042a.31.31 0 0 1 .132.13.268.268 0 0 1 .001.18l-.05.177 2.251 2.539.164-.589c.02-.072.048-.115.084-.13.039-.011.092.003.16.042a.311.311 0 0 1 .133.129c.021.05.021.11.001.181l-.322 1.155Zm-.345-.338-1.338-1.475-.344 1.234 1.665.3.017-.059Zm-.782 4.382c-.019.071-.048.114-.086.125-.036.015-.089.003-.158-.038a.307.307 0 0 1-.133-.133.263.263 0 0 1 0-.176l.212-.763-2.54-1.495-.434 1.556.913.539a.272.272 0 0 1 .124.135.352.352 0 0 1-.01.208c-.023.085-.054.139-.091.157-.038.02-.089.01-.154-.028l-1.103-.65a.31.31 0 0 1-.134-.133.255.255 0 0 1 .001-.175l.784-2.814c.019-.072.048-.114.084-.13.038-.011.09.003.16.043.068.041.112.083.131.128.021.05.023.109.002.182l-.142.509 2.541 1.497.141-.509c.021-.072.049-.115.085-.13.039-.013.091.002.159.042.07.041.113.083.133.129a.277.277 0 0 1 .002.181l-.487 1.743Zm-1.294 4.645c-.019.072-.048.113-.086.124-.037.016-.088.003-.158-.037a.309.309 0 0 1-.133-.134c-.021-.045-.019-.105 0-.176l.225-.805-2.541-1.497-.242.869c-.02.071-.049.113-.086.125-.038.015-.089.002-.158-.039a.297.297 0 0 1-.133-.133c-.021-.046-.02-.104 0-.175l.615-2.211c.02-.07.047-.114.085-.128.037-.013.09.001.159.042.068.04.113.084.132.129a.271.271 0 0 1 .001.181l-.242.867 2.541 1.498.224-.806c.021-.072.048-.114.084-.13.039-.011.092.003.16.043a.307.307 0 0 1 .133.13.268.268 0 0 1 .001.18l-.581 2.083Zm-.786 2.823c-.091.329-.238.58-.442.751a1.033 1.033 0 0 1-.732.242c-.288-.008-.6-.112-.936-.31a2.7 2.7 0 0 1-.82-.724 2.242 2.242 0 0 1-.41-.916 2.123 2.123 0 0 1 .044-.985l.413-1.483c.02-.071.049-.114.085-.129.037-.012.091.002.159.043.07.04.113.083.132.129a.265.265 0 0 1 .001.181l-.097.352 2.541 1.496.098-.352c.019-.071.047-.115.085-.129.037-.013.09.001.158.042.069.04.113.084.133.129.021.05.021.109.001.181l-.413 1.482Zm-2.734-2.378-.164.586a1.632 1.632 0 0 0-.038.736c.048.243.152.47.312.682.163.214.38.399.652.561.272.159.517.244.734.256a.765.765 0 0 0 .552-.173c.149-.127.259-.316.328-.565l.164-.585-2.54-1.498Zm.122-13.335c-.02.07-.049.113-.086.124-.038.016-.091.003-.159-.038l-1.046-.616a.255.255 0 0 1-.124-.136.359.359 0 0 1 .008-.206c.025-.086.056-.139.093-.159.038-.019.089-.01.154.029l.859.505.233-.841-2.541-1.495-.206.741c-.02.072-.049.113-.086.126-.036.014-.089.001-.158-.038a.308.308 0 0 1-.134-.135c-.02-.045-.019-.103 0-.175l.545-1.957c.021-.071.049-.115.085-.13.037-.012.092.002.159.043.07.04.113.083.132.129a.267.267 0 0 1 .002.18l-.207.743 2.54 1.497.235-.841-.859-.505a.265.265 0 0 1-.123-.136.345.345 0 0 1 .01-.206c.023-.086.054-.139.091-.159.039-.018.09-.01.154.029l1.047.617a.307.307 0 0 1 .132.128c.021.05.022.109.001.182l-.751 2.7Zm-1.114 3.996c-.019.072-.048.113-.086.124-.037.016-.09.003-.158-.036a.316.316 0 0 1-.135-.135.262.262 0 0 1 .002-.175l.062-.227-2.54-1.497-.062.226c-.021.073-.049.114-.088.125-.036.016-.089.003-.157-.037a.306.306 0 0 1-.134-.134.276.276 0 0 1 0-.176l.276-.987c.019-.073.048-.115.084-.131.038-.011.092.003.16.043a.308.308 0 0 1 .132.129c.02.049.022.11.001.181l-.08.29 1.133.666.436-1.566-1.133-.668-.08.29c-.021.071-.049.112-.087.125-.036.015-.089.002-.157-.039a.3.3 0 0 1-.135-.134c-.019-.045-.019-.103 0-.176l.276-.987c.02-.071.049-.115.085-.131.037-.011.092.003.159.044.068.04.113.084.132.129a.267.267 0 0 1 .002.18l-.063.226 2.541 1.497.062-.226c.021-.071.048-.115.085-.13.038-.012.091.003.159.044a.3.3 0 0 1 .133.128.274.274 0 0 1 .002.18l-.276.989c-.02.071-.049.112-.086.125-.038.015-.089.003-.158-.038a.311.311 0 0 1-.135-.135.267.267 0 0 1 .001-.175l.081-.289-1.03-.607-.437 1.566 1.03.608.08-.289c.021-.072.049-.115.085-.13.039-.012.092.003.159.042.07.041.113.084.134.129.02.049.02.109.001.181l-.276.988Zm-.695 2.492c-.072.263-.173.464-.303.605a.67.67 0 0 1-.447.235.876.876 0 0 1-.532-.141 1.129 1.129 0 0 1-.472-.549 1.744 1.744 0 0 1-.122-.815.481.481 0 0 1-.279.177 1.47 1.47 0 0 1-.274.032 3.71 3.71 0 0 1-.318-.008 3.947 3.947 0 0 0-.284-.01c-.157.003-.25.058-.279.165l-.025.088c-.019.071-.048.113-.086.125-.037.015-.09.002-.158-.037a.308.308 0 0 1-.134-.135c-.02-.045-.02-.104.001-.175l.063-.227a.457.457 0 0 1 .176-.27c.083-.051.206-.076.37-.075.094.002.216.009.369.02.14.008.248.013.326.013.079.001.159-.005.241-.02a.425.425 0 0 0 .238-.123.614.614 0 0 0 .15-.282l.119-.429-1.052-.619-.114.409c-.02.072-.048.113-.087.124-.036.016-.089.003-.157-.037a.306.306 0 0 1-.134-.134c-.02-.045-.02-.105 0-.176l.353-1.265c.02-.07.047-.114.085-.13.037-.011.09.003.159.044.068.04.113.082.132.129a.27.27 0 0 1 .002.179l-.107.385 2.54 1.496.107-.383c.019-.071.048-.115.084-.131.038-.011.092.003.16.043.068.041.112.083.132.13.02.048.022.109.001.18l-.444 1.592Zm-1.282-1.613-.178.639c-.158.566-.053.958.315 1.175.179.104.336.114.471.028.138-.085.243-.258.315-.517l.187-.67-1.11-.655Zm-.185 6.881c-.019.072-.048.113-.086.125-.037.015-.09.002-.158-.037-.068-.041-.114-.085-.134-.135-.02-.045-.02-.104.001-.175l.054-.195-1.827-1.077c-.387-.228-.644-.512-.77-.856-.126-.341-.132-.722-.015-1.141.118-.42.303-.689.558-.806.254-.118.575-.061.961.166l1.828 1.077.054-.195c.02-.072.049-.115.085-.13.037-.011.09.003.159.042.068.041.113.084.132.129.021.05.022.109.001.181l-.284 1.019c-.019.072-.048.113-.086.126-.036.014-.089.001-.158-.038a.305.305 0 0 1-.133-.135c-.02-.045-.02-.103 0-.175l.098-.352-1.772-1.043c-.283-.167-.505-.22-.667-.156-.162.064-.284.241-.364.532-.082.292-.08.542.006.752.086.209.271.397.554.564l1.772 1.044.098-.353c.02-.071.047-.114.085-.129.037-.013.09.001.159.042.068.04.113.084.132.129.021.05.021.109.002.181l-.285 1.019Z"/>
    <path fill="url(#f)" d="m317.895 413.048 12.68-45.518c.62-2.225-.468-4.966-2.431-6.122l-24.403-14.378c-1.963-1.156-4.057-.29-4.676 1.934l-12.681 45.518c-.62 2.225.469 4.966 2.432 6.122l24.403 14.378c1.963 1.157 4.056.291 4.676-1.934Z"/>
    <path stroke="#000" stroke-linejoin="bevel" stroke-width=".769" d="m323.921 390.105-6.577-10.804s-7.868-1.865-13.381-7.885l-10.923.494 7.606 11.411s5.81.653 13.383 7.885l9.892-1.101Z" clip-rule="evenodd"/>
    <path stroke="#000" stroke-linejoin="bevel" stroke-width=".769" d="m322.77 358.241-5.803 20.835m-3.15 11.311-5.971 21.429m2.321-61-5.805 20.835m-3.15 11.31-5.97 21.429"/>
  </g>
  <defs>
    <linearGradient id="b" x1="418.379" x2="468.788" y1="613.858" y2="275.337" gradientUnits="userSpaceOnUse">
      <stop stop-color="#C9FA49"/>
      <stop offset="1" stop-color="#5C5C5C" stop-opacity="0"/>
    </linearGradient>
    <linearGradient id="d" x1="308.054" x2="68.917" y1="63.019" y2="468.895" gradientUnits="userSpaceOnUse">
      <stop stop-color="#fff"/>
      <stop offset="1" stop-opacity="0"/>
    </linearGradient>
    <linearGradient id="f" x1="294.727" x2="306.378" y1="429.878" y2="333.357" gradientUnits="userSpaceOnUse">
      <stop stop-color="#fff"/>
      <stop offset=".27" stop-color="#fff"/>
      <stop offset=".443" stop-color="#ADADAD"/>
      <stop offset=".684" stop-color="#fff"/>
      <stop offset="1"/>
    </linearGradient>
    <radialGradient id="c" cx="0" cy="0" r="1" gradientTransform="matrix(151.70371 548.46421 -856.27837 236.84428 184.701 100.106)" gradientUnits="userSpaceOnUse">
      <stop stop-color="#fff" stop-opacity=".3"/>
      <stop offset="1" stop-opacity="0"/>
    </radialGradient>
    <radialGradient id="e" cx="0" cy="0" r="1" gradientTransform="matrix(137.5927 210.0236 -362.44904 237.45115 214.477 31.835)" gradientUnits="userSpaceOnUse">
      <stop stop-color="#353535"/>
      <stop offset="1"/>
    </radialGradient>
    <clipPath id="a">
      <path fill="#fff" d="M0 0h416v434H0z"/>
    </clipPath>
  </defs>
</svg>
