<svg xmlns="http://www.w3.org/2000/svg" width="116" height="168" fill="none" viewBox="0 0 116 168">
  <g clip-path="url(#a)">
    <path fill="#C9FA49" fill-rule="evenodd" d="M116 0H0v170h116V0ZM17.026 82.006v7.196H22.3v33.468h7.83V82.006H17.026Zm31.336 24.432c-2.066 1.971-4.84 4.444-8.32 7.419l-2.827 2.454v5.802h26.862v-6.471H48.036c3.154-2.752 5.71-5.095 7.667-7.028 1.957-1.971 3.697-4.277 5.22-6.917 1.523-2.64 2.284-5.411 2.284-8.312 0-3.681-1.106-6.638-3.317-8.869-2.212-2.268-5.383-3.403-9.516-3.403-3.77 0-6.887 1.153-9.352 3.459-2.43 2.305-3.716 5.69-3.861 10.152h7.395c.036-2.157.544-3.849 1.523-5.076.978-1.264 2.374-1.897 4.187-1.897 1.812 0 3.153.54 4.023 1.618.87 1.079 1.305 2.566 1.305 4.463 0 2.082-.689 4.202-2.066 6.359-1.377 2.156-3.1 4.239-5.166 6.247Zm21.708-14.28c0 4.053 1.812 7.047 5.437 8.981-1.994.855-3.552 2.157-4.676 3.905-1.124 1.71-1.686 3.737-1.686 6.08 0 2.528.617 4.741 1.85 6.638 1.268 1.859 2.972 3.291 5.11 4.295 2.175 1.004 4.622 1.506 7.34 1.506 2.72 0 5.167-.502 7.342-1.506s3.878-2.436 5.11-4.295c1.27-1.897 1.904-4.11 1.904-6.638 0-2.343-.562-4.37-1.686-6.08-1.123-1.711-2.682-3.013-4.676-3.905a10.19 10.19 0 0 0 3.915-3.57c.979-1.562 1.468-3.365 1.468-5.41 0-2.009-.507-3.831-1.522-5.468-.98-1.673-2.483-2.993-4.513-3.96-1.994-1.004-4.441-1.506-7.341-1.506-2.9 0-5.365.502-7.395 1.506-1.994.967-3.498 2.287-4.513 3.96-.979 1.637-1.468 3.459-1.468 5.467Zm17.726-3.124c1.087 1.004 1.631 2.417 1.631 4.24 0 1.673-.562 3.03-1.685 4.072-1.124 1.004-2.556 1.506-4.296 1.506-1.74 0-3.172-.502-4.296-1.506-1.087-1.004-1.63-2.343-1.63-4.017 0-1.859.525-3.29 1.576-4.295 1.087-1.004 2.537-1.506 4.35-1.506 1.849 0 3.299.502 4.35 1.506Zm-9.407 17.125c1.305-1.078 2.99-1.617 5.057-1.617 2.066 0 3.734.557 5.002 1.673 1.27 1.078 1.904 2.603 1.904 4.574 0 1.822-.617 3.328-1.85 4.518-1.232 1.19-2.917 1.785-5.056 1.785-2.139 0-3.843-.576-5.111-1.729-1.233-1.19-1.85-2.715-1.85-4.574 0-2.008.635-3.551 1.904-4.63Zm-62.846 34.623c0-1.214.273-2.303.818-3.267a5.977 5.977 0 0 1 2.245-2.249 6.14 6.14 0 0 1 3.114-.821c1.288 0 2.43.327 3.428.982 1.01.642 1.74 1.559 2.192 2.749h-2.383c-.314-.655-.749-1.143-1.305-1.464-.557-.321-1.201-.482-1.932-.482-.8 0-1.514.184-2.14.553-.626.369-1.12.899-1.479 1.589-.348.69-.522 1.493-.522 2.41 0 .916.174 1.719.522 2.41.36.69.853 1.225 1.479 1.606.626.369 1.34.553 2.14.553.731 0 1.375-.16 1.932-.482.556-.321.991-.809 1.305-1.463h2.383c-.452 1.19-1.183 2.106-2.192 2.749-.998.642-2.14.964-3.428.964-1.137 0-2.175-.268-3.114-.804a6.106 6.106 0 0 1-2.245-2.267c-.545-.964-.818-2.052-.818-3.266Zm23.88 6.229-2.784-4.962h-1.513v4.962h-1.984v-12.405h4.176c.928 0 1.711.166 2.35.499.649.334 1.13.78 1.443 1.339.325.56.487 1.184.487 1.874 0 .81-.231 1.547-.695 2.214-.453.654-1.155 1.101-2.106 1.339l2.993 5.14h-2.366Zm-4.297-6.586h2.192c.743 0 1.3-.191 1.67-.571.383-.381.575-.893.575-1.536 0-.642-.186-1.142-.557-1.499-.371-.369-.934-.553-1.688-.553h-2.192v4.159Zm21.451-5.819-4.002 7.907v4.498h-1.984v-4.498l-4.019-7.907h2.21l2.801 6.087 2.802-6.087h2.192Zm13.51 3.695c0 .63-.144 1.225-.434 1.785-.29.559-.754 1.017-1.392 1.374-.638.345-1.456.518-2.454.518h-2.192v5.033H61.63v-12.405h4.176c.928 0 1.711.166 2.35.499.649.322 1.13.762 1.443 1.321.325.56.488 1.184.488 1.875Zm-4.28 2.017c.754 0 1.317-.173 1.688-.518.371-.357.557-.857.557-1.499 0-1.357-.748-2.035-2.245-2.035h-2.192v4.052h2.192Zm17.465-5.712v1.66h-3.219v10.745H78.07v-10.745h-3.237v-1.66h8.44Zm11.005 12.53a6.235 6.235 0 0 1-3.115-.803 6.105 6.105 0 0 1-2.244-2.267c-.546-.976-.818-2.07-.818-3.284s.272-2.303.818-3.267a5.977 5.977 0 0 1 2.244-2.249 6.139 6.139 0 0 1 3.115-.821c1.136 0 2.175.274 3.114.821a5.818 5.818 0 0 1 2.245 2.249c.545.964.818 2.053.818 3.267s-.273 2.308-.818 3.284a5.94 5.94 0 0 1-2.245 2.267c-.94.536-1.978.803-3.114.803Zm0-1.767c.8 0 1.514-.184 2.14-.553a3.87 3.87 0 0 0 1.462-1.607c.36-.702.539-1.511.539-2.427 0-.917-.18-1.72-.54-2.41a3.753 3.753 0 0 0-1.461-1.589c-.626-.369-1.34-.553-2.14-.553s-1.514.184-2.14.553c-.627.369-1.12.899-1.48 1.589-.347.69-.521 1.493-.521 2.41 0 .916.174 1.725.522 2.427.36.691.852 1.226 1.478 1.607.627.369 1.34.553 2.14.553Z" clip-rule="evenodd"/>
  </g>
  <defs>
    <clipPath id="a">
      <path fill="#fff" d="M0 0h116v168H0z"/>
    </clipPath>
  </defs>
</svg>
