<svg xmlns="http://www.w3.org/2000/svg" width="142" height="32" fill="none" viewBox="0 0 142 32">
  <path fill="#000" fill-rule="evenodd" d="M3.84 29.699a8.198 8.198 0 0 1-1.02-11.632l8.03-9.493a8.39 8.39 0 0 1 9.99-2.143c1.04.494 1.15 1.825.41 2.699-.74.874-2.07.92-3.2.698a4.194 4.194 0 0 0-4.01 1.397l-8.03 9.494a4.102 4.102 0 0 0 .5 5.816 4.195 4.195 0 0 0 5.87-.513L28.45 7.035c2.96-3.495 8.21-3.955 11.73-1.026l9.57 7.955a8.205 8.205 0 0 1 1.01 11.632c-2.96 3.495-8.21 3.954-11.73 1.026l-3.19-2.652-3.34 3.956a8.39 8.39 0 0 1-9.99 2.142c-1.04-.493-1.15-1.825-.41-2.699.74-.874 2.07-.92 3.2-.697 1.44.285 2.99-.2 4.01-1.398l3.44-4.069a4.044 4.044 0 0 1 5.66-.494l3.3 2.746a4.194 4.194 0 0 0 5.87-.513 4.112 4.112 0 0 0-.51-5.816L37.5 9.174a4.18 4.18 0 0 0-5.86.513L15.57 28.673c-2.96 3.496-8.21 3.955-11.73 1.026Z" clip-rule="evenodd"/>
  <path fill="#000" d="M84.74 4.383c-2.03.178-3.52 1.043-4.41 2.592-1.02-1.382-2.5-1.987-4.39-1.823-1.94.17-3.31.964-4.11 2.413l-.14-1.612-3.99.349 1.33 15.207 3.98-.348-.74-8.547c-.2-2.22.84-3.537 2.6-3.69 1.64-.144 2.69.837 2.85 2.662l.79 9.094 3.99-.35-.75-8.545c-.19-2.22.75-3.53 2.57-3.688 1.64-.143 2.69.838 2.85 2.663l.79 9.093 3.99-.348-.82-9.368c-.33-3.801-2.83-6.065-6.39-5.754Zm20.85.414c-1.34-1.385-3.07-1.97-5.23-1.78-2.07.18-3.76 1.126-5.11 2.807-1.32 1.678-1.89 3.628-1.69 5.879.19 2.25 1.1 4.102 2.69 5.526 1.62 1.42 3.44 2.028 5.51 1.847 2.16-.19 3.77-1.065 4.84-2.661l.16 1.795 3.98-.35-1.33-15.206-3.98.349.16 1.794Zm-6.57 9.554c-.88-.751-1.37-1.75-1.48-2.997-.11-1.247.2-2.316.94-3.177.73-.891 1.71-1.376 2.95-1.484 1.23-.108 2.29.199 3.16.949.9.718 1.4 1.717 1.5 2.964.11 1.247-.2 2.316-.96 3.21-.73.862-1.72 1.346-2.95 1.454-1.24.108-2.29-.198-3.16-.92Zm25.32-10.367-.22-2.615-11.59 1.013.32 3.68 6.21-.543-5.74 9.48.23 2.617 12.2-1.067-.32-3.68-6.86.599 5.77-9.484ZM141.89 9.1c.04-.585.06-1.108.01-1.625-.2-2.281-1.1-4.102-2.72-5.523-1.59-1.424-3.54-2.02-5.79-1.823-2.38.208-4.29 1.14-5.67 2.825-1.38 1.653-1.99 3.636-1.79 5.918.21 2.31 1.15 4.16 2.82 5.545 1.68 1.386 3.79 1.968 6.35 1.744 2.96-.26 5.12-1.552 6.45-3.843l-3.37-1.544c-.69 1.07-1.82 1.69-3.33 1.823-2.38.208-3.91-.608-4.61-2.478L141.89 9.1Zm-11.97-2.017c.29-1.987 1.64-3.24 3.77-3.426 1.83-.16 3.46.709 4.1 2.737l-7.87.689Z"/>
</svg>
