<svg xmlns="http://www.w3.org/2000/svg" width="141" height="39" fill="none" viewBox="0 0 141 39">
  <path fill="#000" d="m51.34 7.8-7.84.686c-.54.047-.96.477-1 1.014l-1.41 20.395c-.03.402.31.733.71.698l3.75-.327c.53-.047.96-.477.99-1.016l.38-5.501c.04-.538.46-.968 1-1.015l2.48-.217c5.17-.452 7.94-3.213 8.28-8.237.16-2.199-.32-3.873-1.44-4.977-1.23-1.213-3.27-1.733-5.9-1.503Zm1.55 7.268c-.18 2.853-2.33 3.041-4.41 3.223l-1.19.103.38-5.33c.02-.322.27-.58.59-.608l.55-.048c1.41-.123 2.75-.24 3.51.507.45.446.64 1.15.57 2.153Zm22.54-2.062-3.76.328a.65.65 0 0 0-.59.61L71 15.007l-.3-.358c-.91-1.109-2.76-1.345-4.57-1.187-4.15.363-7.42 3.817-7.73 8.29-.16 2.23.53 4.29 1.91 5.647 1.26 1.25 2.95 1.668 4.9 1.498 3.34-.293 5.01-2.606 5.01-2.606l-.08 1.06c-.03.404.31.735.71.7l3.39-.296c.53-.047.95-.477.99-1.016l.91-13.036a.654.654 0 0 0-.71-.698Zm-4.6 7.77c-.17 2.178-1.75 3.767-3.92 3.957-1.09.096-2-.178-2.61-.792-.62-.61-.91-1.529-.82-2.588.15-2.157 1.75-3.797 3.89-3.984 1.07-.093 1.96.186 2.59.804.64.626.95 1.55.87 2.603Zm24.61-9.52-3.78.33a1.1 1.1 0 0 0-.86.558l-4.53 8.125-2.86-7.178a1.086 1.086 0 0 0-1.11-.686l-3.71.325a.65.65 0 0 0-.54.92l5.22 11.838-3.43 5.861a.66.66 0 0 0 .63.986l3.77-.33c.36-.03.68-.235.85-.546l10.97-19.223a.651.651 0 0 0-.62-.98Zm11.86-8.349-7.84.686c-.54.047-.96.476-1 1.014l-1.41 20.395c-.03.402.31.733.71.698l4.02-.352a.768.768 0 0 0 .7-.71l.4-5.782c.04-.538.46-.968 1-1.015l2.48-.217c5.17-.452 7.93-3.213 8.28-8.237.16-2.199-.33-3.873-1.45-4.977-1.22-1.213-3.26-1.733-5.89-1.503Zm1.55 7.268c-.18 2.852-2.33 3.04-4.41 3.222l-1.19.104.38-5.33c.02-.322.27-.58.59-.608l.55-.048c1.41-.124 2.75-.24 3.51.507.45.445.64 1.15.57 2.153Zm22.54-2.062-3.76.328a.648.648 0 0 0-.59.608l-.08 1.066-.3-.358c-.91-1.109-2.76-1.346-4.57-1.187-4.15.363-7.42 3.817-7.72 8.288-.17 2.232.52 4.291 1.9 5.65 1.26 1.248 2.95 1.667 4.9 1.496 3.34-.292 5.01-2.605 5.01-2.605l-.08 1.058c-.03.405.31.736.72.701l3.38-.296c.53-.047.96-.477.99-1.015l.91-13.036a.654.654 0 0 0-.71-.698Zm-4.6 7.77c-.17 2.177-1.75 3.767-3.92 3.957-1.09.096-2-.178-2.62-.792-.61-.61-.9-1.529-.82-2.588.16-2.158 1.76-3.797 3.9-3.984 1.06-.093 1.96.185 2.59.804.64.626.95 1.55.87 2.603Zm8.44-14.863-1.43 20.768c-.03.402.31.733.71.698l3.24-.283c.54-.047.96-.477 1-1.015L140.16.794a.655.655 0 0 0-.71-.7l-3.62.317a.66.66 0 0 0-.6.61ZM8.92 37.408l.26-3.863-1.34.086-6.38.558L3.44 5.681a.36.36 0 0 1 .33-.339l10.76-.94c3.57-.313 6.1.215 7.52 1.57.66.635 1.11 1.32 1.37 2.096.26.813.35 1.805.27 3.032l-.01.09.07.775.63.29c.54.224.97.497 1.31.824.56.543.96 1.262 1.18 2.136.23.9.27 1.99.14 3.238-.15 1.438-.49 2.707-1 3.767a7.563 7.563 0 0 1-1.89 2.478c-.75.636-1.66 1.15-2.71 1.518-1.02.362-2.19.602-3.49.716l-.84.073c-.59.052-1.16.32-1.58.745a2.557 2.557 0 0 0-.72 1.598l-.03.35-.48 6.808-.02.251c-.01.08-.03.12-.06.15a.146.146 0 0 1-.1.05l-5.17.451Z"/>
  <path fill="#000" d="m24.87 11.176-.06.641c-.78 7.409-5.42 10.351-11.62 10.893l-3.15.276c-.76.066-1.35.673-1.41 1.431l-.71 10.392-.21 2.946c-.03.497.38.907.88.864l5.6-.49a1.356 1.356 0 0 0 1.23-1.252l.03-.289.47-6.782.04-.373a1.34 1.34 0 0 1 1.23-1.255l.83-.073c5.43-.474 9.48-3.048 10.17-9.53.28-2.708-.18-4.908-1.69-6.351-.46-.435-1-.782-1.63-1.048Z"/>
  <path fill="#000" d="M23.33 10.714a10.961 10.961 0 0 0-1.41-.185 17.43 17.43 0 0 0-2.8.04l-8.43.737a1.356 1.356 0 0 0-1.23 1.255l-.8 11.52-.03.336a1.55 1.55 0 0 1 1.41-1.43l3.15-.277c6.2-.542 10.84-3.485 11.62-10.893l.06-.64a7.752 7.752 0 0 0-1.54-.463Z"/>
  <path fill="#000" d="M9.46 12.56a1.35 1.35 0 0 1 1.23-1.253l8.43-.737c1-.087 1.94-.104 2.8-.04a10.958 10.958 0 0 1 1.41.185l.33.071c.43.102.83.232 1.21.39.18-2.729-.4-4.525-2-6.058-1.77-1.687-4.73-2.216-8.44-1.892l-10.76.941c-.76.066-1.35.673-1.41 1.433L.27 34.401a.927.927 0 0 0 1 .99l6.64-.582.75-10.728.8-11.52Z"/>
</svg>
