<svg xmlns="http://www.w3.org/2000/svg" width="35" height="30" fill="none" viewBox="0 0 35 30">
  <path fill="#C9FA49" d="M33.906 23.571H10.938V22.5c0-.59-.493-1.071-1.094-1.071H7.656c-.601 0-1.093.482-1.093 1.071v1.071h-5.47c-.6 0-1.093.483-1.093 1.072v2.143c0 .589.492 1.071 1.094 1.071h5.468v1.072c0 .589.493 1.071 1.094 1.071h2.188c.601 0 1.094-.482 1.094-1.071v-1.072h22.968c.602 0 1.094-.482 1.094-1.071v-2.143c0-.59-.492-1.072-1.094-1.072Zm0-10.714h-5.468v-1.071c0-.59-.493-1.072-1.094-1.072h-2.188c-.601 0-1.093.482-1.093 1.072v1.071H1.093c-.6 0-1.093.482-1.093 1.072v2.142c0 .59.492 1.072 1.094 1.072h22.968v1.071c0 .59.493 1.072 1.094 1.072h2.188c.601 0 1.093-.482 1.093-1.072v-1.071h5.47c.6 0 1.093-.482 1.093-1.072V13.93c0-.59-.492-1.072-1.094-1.072Zm0-10.714H19.688V1.07c0-.588-.493-1.07-1.095-1.07h-2.188c-.601 0-1.093.482-1.093 1.071v1.072H1.092C.494 2.143 0 2.625 0 3.214v2.143c0 .59.492 1.072 1.094 1.072h14.219V7.5c0 .59.492 1.071 1.093 1.071h2.188c.601 0 1.093-.482 1.093-1.071V6.429h14.22c.6 0 1.093-.483 1.093-1.072V3.214c0-.589-.492-1.071-1.094-1.071Z"/>
</svg>
