<svg xmlns="http://www.w3.org/2000/svg" width="81" height="34" fill="none" viewBox="0 0 81 34">
  <path fill="#000" fill-rule="evenodd" d="M80.17 14.551c-.49-5.618-3.6-9.813-8.8-9.359-5.22.457-7.99 5.166-7.51 10.741.58 6.605 4.6 9.615 9.96 9.147 2.61-.229 4.53-.994 5.95-1.958l-.38-4.39c-1.43.877-3.1 1.488-5.27 1.678-2.13.186-4.08-.395-4.55-2.964l10.73-.938c-.02-.286-.08-1.43-.13-1.957Zm-11.02-1.137c-.22-2.48 1.21-3.644 2.59-3.765 1.34-.117 2.86.79 3.07 3.27l-5.66.495ZM54.52 6.666c-2.15.188-3.45 1.319-4.15 2.088l-.41-1.336-4.83.423 2.24 25.588 5.39-1.643-.52-6.212c.84.501 2.07 1.212 4 1.043 3.93-.344 7.23-3.817 6.62-10.774-.58-6.362-4.5-9.513-8.34-9.177Zm0 15.236c-1.29.113-2.1-.281-2.68-.805l-.73-8.14c.52-.686 1.27-1.194 2.52-1.304 1.99-.174 3.57 1.943 3.82 4.818.26 2.941-.91 5.254-2.93 5.431ZM37.44 6.855l5.41-1.667-.39-4.455-5.41 1.645.39 4.477Z" clip-rule="evenodd"/>
  <path fill="#000" d="m43.1 8.041-5.51.482 1.68 19.202 5.5-.482L43.1 8.041Z"/>
  <path fill="#000" fill-rule="evenodd" d="m31.826 10.663-.494-1.593-4.74.414 1.679 19.202 5.487-.479-1.138-13.014c1.147-1.803 3.368-1.688 4.07-1.506l-.442-5.047c-.725-.202-3.335-.461-4.422 2.023ZM20.295 5.236l-5.255 1.61 1.515 17.58c.284 3.248 2.929 5.427 6.177 5.143 1.799-.158 3.087-.602 3.777-1.06l-.39-4.455c-.677.347-4.056 1.66-4.34-1.589l-.681-7.79 4.169-.365-.408-4.674-4.17.364-.394-4.764ZM6.363 16.87c-.074-.856.599-1.247 1.762-1.348 1.668-.146 3.819.174 5.565.928l-.451-5.157c-1.884-.565-3.709-.693-5.53-.534-4.455.39-7.214 2.975-6.875 6.86.53 6.057 8.785 4.362 9.013 6.973.088 1.01-.761 1.416-1.99 1.523-1.821.159-4.213-.383-6.144-1.232l.456 5.224c2.118.699 4.214.892 6.101.727 4.565-.4 7.505-2.934 7.162-6.863-.594-6.538-8.854-4.643-9.069-7.101Z" clip-rule="evenodd"/>
</svg>
