<svg xmlns="http://www.w3.org/2000/svg" width="30" height="30" fill="none" viewBox="0 0 30 30">
  <path fill="#C9FA49" d="M21.939 7.577A10.09 10.09 0 0 0 14.99 4.84c-4.685.004-8.73 3.216-9.846 7.672a.728.728 0 0 1-.705.554H.974a.725.725 0 0 1-.714-.858C1.569 5.257 7.67 0 15 0a14.95 14.95 0 0 1 10.362 4.154l2.16-2.16C28.436 1.08 30 1.727 30 3.021v8.108c0 .802-.65 1.452-1.452 1.452H20.44c-1.293 0-1.94-1.564-1.027-2.478l2.526-2.526ZM1.452 17.42H9.56c1.293 0 1.94 1.564 1.026 2.478l-2.525 2.526a10.09 10.09 0 0 0 6.948 2.738c4.683-.004 8.73-3.214 9.846-7.672a.728.728 0 0 1 .705-.553h3.466c.454 0 .798.411.714.857C28.432 24.743 22.33 30 15 30a14.95 14.95 0 0 1-10.362-4.154l-2.16 2.16C1.564 28.92 0 28.273 0 26.979v-8.108c0-.802.65-1.452 1.452-1.452Z"/>
</svg>
